<svg preserveAspectRatio="none" overflow="visible" style="display: block;" width="16" height="16" viewBox="0 0 16 16" fill="none" xmlns="http://www.w3.org/2000/svg">
<g id="bubbles 1" clip-path="url(#clip0_0_79)">
<path id="Vector" d="M4.66733 10.0567C4.81817 10.0035 4.97957 9.98721 5.13798 10.0093C5.2964 10.0313 5.44721 10.0911 5.57776 10.1835C5.70831 10.2759 5.81478 10.3983 5.88825 10.5404C5.96173 10.6824 6.00005 10.8401 6 11" stroke="black" stroke-width="1.5" stroke-linecap="round" stroke-linejoin="round"/>
<path id="Vector_2" d="M12.3333 8C13.622 8 14.6667 6.95533 14.6667 5.66667C14.6667 4.378 13.622 3.33333 12.3333 3.33333C11.0447 3.33333 10 4.378 10 5.66667C10 6.95533 11.0447 8 12.3333 8Z" stroke="black" stroke-width="1.5" stroke-linecap="round" stroke-linejoin="round"/>
<path id="Vector_3" d="M5 14.6667C7.02504 14.6667 8.66667 13.025 8.66667 11C8.66667 8.97496 7.02504 7.33333 5 7.33333C2.97496 7.33333 1.33333 8.97496 1.33333 11C1.33333 13.025 2.97496 14.6667 5 14.6667Z" stroke="black" stroke-width="1.5" stroke-linecap="round" stroke-linejoin="round"/>
<path id="Vector_4" d="M5 4.66667C5.92047 4.66667 6.66667 3.92047 6.66667 3C6.66667 2.07953 5.92047 1.33333 5 1.33333C4.07953 1.33333 3.33333 2.07953 3.33333 3C3.33333 3.92047 4.07953 4.66667 5 4.66667Z" stroke="black" stroke-width="1.5" stroke-linecap="round" stroke-linejoin="round"/>
</g>
<defs>
<clipPath id="clip0_0_79">
<rect width="16" height="16" fill="white"/>
</clipPath>
</defs>
</svg>
